<mxfile host="app.diagrams.net" agent="Mozilla/5.0 (Windows NT 10.0; Win64; x64; rv:129.0) Gecko/20100101 Firefox/129.0" version="24.7.7">
  <diagram name="Page-1" id="z3YRru63F1JJ3skDX_K0">
    <mxGraphModel dx="3415" dy="968" grid="1" gridSize="10" guides="1" tooltips="1" connect="1" arrows="1" fold="1" page="1" pageScale="1" pageWidth="850" pageHeight="1100" math="0" shadow="0">
      <root>
        <mxCell id="0" />
        <mxCell id="1" parent="0" />
        <mxCell id="MbAl7yiFMgFEbEgRKCan-1" value="" style="rounded=0;whiteSpace=wrap;html=1;" vertex="1" parent="1">
          <mxGeometry x="120" y="160" width="160" height="520" as="geometry" />
        </mxCell>
        <mxCell id="MbAl7yiFMgFEbEgRKCan-2" value="&lt;font style=&quot;font-size: 14px;&quot; face=&quot;Verdana&quot;&gt;User (Client)&lt;/font&gt;" style="rounded=0;whiteSpace=wrap;html=1;" vertex="1" parent="1">
          <mxGeometry x="120" y="110" width="160" height="50" as="geometry" />
        </mxCell>
        <mxCell id="MbAl7yiFMgFEbEgRKCan-5" value="" style="rounded=0;whiteSpace=wrap;html=1;" vertex="1" parent="1">
          <mxGeometry x="280" y="160" width="160" height="520" as="geometry" />
        </mxCell>
        <mxCell id="MbAl7yiFMgFEbEgRKCan-6" value="&lt;font style=&quot;font-size: 14px;&quot;&gt;Authenticator&lt;/font&gt;&lt;font style=&quot;font-size: 14px;&quot;&gt; &lt;font face=&quot;Verdana&quot;&gt;System&lt;/font&gt;&lt;/font&gt;" style="rounded=0;whiteSpace=wrap;html=1;" vertex="1" parent="1">
          <mxGeometry x="280" y="110" width="160" height="50" as="geometry" />
        </mxCell>
        <mxCell id="MbAl7yiFMgFEbEgRKCan-7" value="" style="rounded=0;whiteSpace=wrap;html=1;" vertex="1" parent="1">
          <mxGeometry x="440" y="160" width="160" height="520" as="geometry" />
        </mxCell>
        <mxCell id="MbAl7yiFMgFEbEgRKCan-8" value="&lt;div&gt;&lt;font style=&quot;font-size: 14px;&quot; face=&quot;Verdana&quot;&gt;Database&lt;/font&gt;&lt;/div&gt;" style="rounded=0;whiteSpace=wrap;html=1;" vertex="1" parent="1">
          <mxGeometry x="440" y="110" width="160" height="50" as="geometry" />
        </mxCell>
        <mxCell id="MbAl7yiFMgFEbEgRKCan-9" value="" style="rounded=0;whiteSpace=wrap;html=1;" vertex="1" parent="1">
          <mxGeometry x="600" y="160" width="160" height="520" as="geometry" />
        </mxCell>
        <mxCell id="MbAl7yiFMgFEbEgRKCan-10" value="&lt;font style=&quot;font-size: 14px;&quot; face=&quot;Verdana&quot;&gt;Notification System&lt;br&gt;&lt;/font&gt;" style="rounded=0;whiteSpace=wrap;html=1;" vertex="1" parent="1">
          <mxGeometry x="600" y="110" width="160" height="50" as="geometry" />
        </mxCell>
        <mxCell id="MbAl7yiFMgFEbEgRKCan-14" style="edgeStyle=orthogonalEdgeStyle;rounded=0;orthogonalLoop=1;jettySize=auto;html=1;exitX=0.5;exitY=1;exitDx=0;exitDy=0;entryX=0.5;entryY=0;entryDx=0;entryDy=0;" edge="1" parent="1" source="MbAl7yiFMgFEbEgRKCan-12" target="MbAl7yiFMgFEbEgRKCan-13">
          <mxGeometry relative="1" as="geometry" />
        </mxCell>
        <mxCell id="MbAl7yiFMgFEbEgRKCan-12" value="" style="ellipse;whiteSpace=wrap;html=1;aspect=fixed;fillColor=#000000;" vertex="1" parent="1">
          <mxGeometry x="180" y="190" width="40" height="40" as="geometry" />
        </mxCell>
        <mxCell id="MbAl7yiFMgFEbEgRKCan-13" value="Attempts Login" style="rounded=0;whiteSpace=wrap;html=1;" vertex="1" parent="1">
          <mxGeometry x="140" y="280" width="120" height="50" as="geometry" />
        </mxCell>
        <mxCell id="MbAl7yiFMgFEbEgRKCan-16" value="Registered Users" style="rounded=0;whiteSpace=wrap;html=1;" vertex="1" parent="1">
          <mxGeometry x="460" y="200" width="120" height="50" as="geometry" />
        </mxCell>
        <mxCell id="MbAl7yiFMgFEbEgRKCan-19" value="User is required to enter username or password" style="rounded=0;whiteSpace=wrap;html=1;" vertex="1" parent="1">
          <mxGeometry x="140" y="520" width="120" height="50" as="geometry" />
        </mxCell>
        <mxCell id="MbAl7yiFMgFEbEgRKCan-22" value="Sign in " style="html=1;strokeWidth=2;shape=manualInput;whiteSpace=wrap;rounded=1;size=26;arcSize=11;" vertex="1" parent="1">
          <mxGeometry x="150" y="430" width="100" height="60" as="geometry" />
        </mxCell>
        <mxCell id="MbAl7yiFMgFEbEgRKCan-34" style="edgeStyle=orthogonalEdgeStyle;rounded=0;orthogonalLoop=1;jettySize=auto;html=1;exitX=0.5;exitY=1;exitDx=0;exitDy=0;exitPerimeter=0;entryX=0.5;entryY=0;entryDx=0;entryDy=0;" edge="1" parent="1" source="MbAl7yiFMgFEbEgRKCan-23" target="MbAl7yiFMgFEbEgRKCan-31">
          <mxGeometry relative="1" as="geometry" />
        </mxCell>
        <mxCell id="MbAl7yiFMgFEbEgRKCan-23" value="&lt;div align=&quot;center&quot;&gt;&lt;font style=&quot;font-size: 12px;&quot;&gt;Is &lt;b&gt;Client&lt;/b&gt; already a ser?&lt;/font&gt;&lt;/div&gt;" style="strokeWidth=2;html=1;shape=mxgraph.flowchart.decision;whiteSpace=wrap;align=center;" vertex="1" parent="1">
          <mxGeometry x="318.75" y="180" width="82.5" height="90" as="geometry" />
        </mxCell>
        <mxCell id="MbAl7yiFMgFEbEgRKCan-24" style="edgeStyle=orthogonalEdgeStyle;rounded=0;orthogonalLoop=1;jettySize=auto;html=1;exitX=1;exitY=0.5;exitDx=0;exitDy=0;entryX=0;entryY=0.5;entryDx=0;entryDy=0;entryPerimeter=0;" edge="1" parent="1" source="MbAl7yiFMgFEbEgRKCan-13" target="MbAl7yiFMgFEbEgRKCan-23">
          <mxGeometry relative="1" as="geometry">
            <Array as="points">
              <mxPoint x="300" y="305" />
              <mxPoint x="300" y="225" />
            </Array>
          </mxGeometry>
        </mxCell>
        <mxCell id="MbAl7yiFMgFEbEgRKCan-25" style="edgeStyle=orthogonalEdgeStyle;rounded=0;orthogonalLoop=1;jettySize=auto;html=1;exitX=0;exitY=0.5;exitDx=0;exitDy=0;entryX=1;entryY=0.5;entryDx=0;entryDy=0;entryPerimeter=0;" edge="1" parent="1" source="MbAl7yiFMgFEbEgRKCan-16" target="MbAl7yiFMgFEbEgRKCan-23">
          <mxGeometry relative="1" as="geometry" />
        </mxCell>
        <mxCell id="MbAl7yiFMgFEbEgRKCan-26" value="Logged in" style="rounded=0;whiteSpace=wrap;html=1;" vertex="1" parent="1">
          <mxGeometry x="140" y="360" width="120" height="50" as="geometry" />
        </mxCell>
        <mxCell id="MbAl7yiFMgFEbEgRKCan-31" value="" style="rounded=0;whiteSpace=wrap;html=1;" vertex="1" parent="1">
          <mxGeometry x="315" y="330" width="90" height="10" as="geometry" />
        </mxCell>
        <mxCell id="MbAl7yiFMgFEbEgRKCan-35" style="edgeStyle=orthogonalEdgeStyle;rounded=0;orthogonalLoop=1;jettySize=auto;html=1;exitX=0.25;exitY=1;exitDx=0;exitDy=0;entryX=1;entryY=0.5;entryDx=0;entryDy=0;" edge="1" parent="1" source="MbAl7yiFMgFEbEgRKCan-32" target="MbAl7yiFMgFEbEgRKCan-26">
          <mxGeometry relative="1" as="geometry" />
        </mxCell>
        <mxCell id="MbAl7yiFMgFEbEgRKCan-36" style="edgeStyle=orthogonalEdgeStyle;rounded=0;orthogonalLoop=1;jettySize=auto;html=1;exitX=0.5;exitY=1;exitDx=0;exitDy=0;entryX=1;entryY=0.5;entryDx=0;entryDy=0;" edge="1" parent="1" source="MbAl7yiFMgFEbEgRKCan-32" target="MbAl7yiFMgFEbEgRKCan-22">
          <mxGeometry relative="1" as="geometry" />
        </mxCell>
        <mxCell id="MbAl7yiFMgFEbEgRKCan-32" value="" style="rounded=0;whiteSpace=wrap;html=1;" vertex="1" parent="1">
          <mxGeometry x="315" y="340" width="90" height="10" as="geometry" />
        </mxCell>
        <mxCell id="MbAl7yiFMgFEbEgRKCan-37" value="" style="rounded=0;whiteSpace=wrap;html=1;" vertex="1" parent="1">
          <mxGeometry x="-1700" y="50" width="250" height="1050" as="geometry" />
        </mxCell>
        <mxCell id="MbAl7yiFMgFEbEgRKCan-38" value="&lt;font style=&quot;font-size: 24px;&quot; face=&quot;Verdana&quot;&gt;User (Client)&lt;/font&gt;" style="rounded=0;whiteSpace=wrap;html=1;" vertex="1" parent="1">
          <mxGeometry x="-1700" width="250" height="50" as="geometry" />
        </mxCell>
        <mxCell id="MbAl7yiFMgFEbEgRKCan-39" value="" style="rounded=0;whiteSpace=wrap;html=1;" vertex="1" parent="1">
          <mxGeometry x="-1450" y="50" width="250" height="1050" as="geometry" />
        </mxCell>
        <mxCell id="MbAl7yiFMgFEbEgRKCan-40" value="&lt;font style=&quot;font-size: 24px;&quot; face=&quot;Verdana&quot;&gt;System&lt;/font&gt;" style="rounded=0;whiteSpace=wrap;html=1;" vertex="1" parent="1">
          <mxGeometry x="-1450" width="250" height="50" as="geometry" />
        </mxCell>
        <mxCell id="MbAl7yiFMgFEbEgRKCan-41" value="" style="rounded=0;whiteSpace=wrap;html=1;" vertex="1" parent="1">
          <mxGeometry x="-1200" y="50" width="250" height="1050" as="geometry" />
        </mxCell>
        <mxCell id="MbAl7yiFMgFEbEgRKCan-42" value="&lt;font style=&quot;font-size: 18px;&quot; face=&quot;Verdana&quot;&gt;Sqlite Database&lt;/font&gt;" style="rounded=0;whiteSpace=wrap;html=1;" vertex="1" parent="1">
          <mxGeometry x="-1200" width="250" height="50" as="geometry" />
        </mxCell>
        <mxCell id="MbAl7yiFMgFEbEgRKCan-43" value="" style="rounded=0;whiteSpace=wrap;html=1;" vertex="1" parent="1">
          <mxGeometry x="-950" y="50" width="250" height="1050" as="geometry" />
        </mxCell>
        <mxCell id="MbAl7yiFMgFEbEgRKCan-44" value="&lt;font style=&quot;font-size: 24px;&quot; face=&quot;Verdana&quot;&gt;Server&lt;/font&gt;" style="rounded=0;whiteSpace=wrap;html=1;" vertex="1" parent="1">
          <mxGeometry x="-950" width="250" height="50" as="geometry" />
        </mxCell>
        <mxCell id="MbAl7yiFMgFEbEgRKCan-62" style="edgeStyle=orthogonalEdgeStyle;rounded=0;orthogonalLoop=1;jettySize=auto;html=1;exitX=0.5;exitY=1;exitDx=0;exitDy=0;entryX=0.5;entryY=0;entryDx=0;entryDy=0;" edge="1" parent="1" source="MbAl7yiFMgFEbEgRKCan-45" target="MbAl7yiFMgFEbEgRKCan-58">
          <mxGeometry relative="1" as="geometry">
            <mxPoint x="-1575" y="200" as="targetPoint" />
          </mxGeometry>
        </mxCell>
        <mxCell id="MbAl7yiFMgFEbEgRKCan-77" style="edgeStyle=orthogonalEdgeStyle;rounded=0;orthogonalLoop=1;jettySize=auto;html=1;exitX=0.5;exitY=1;exitDx=0;exitDy=0;entryX=0.5;entryY=0;entryDx=0;entryDy=0;" edge="1" parent="1" source="MbAl7yiFMgFEbEgRKCan-45" target="MbAl7yiFMgFEbEgRKCan-76">
          <mxGeometry relative="1" as="geometry" />
        </mxCell>
        <mxCell id="MbAl7yiFMgFEbEgRKCan-45" value="" style="ellipse;whiteSpace=wrap;html=1;aspect=fixed;fillColor=#000000;" vertex="1" parent="1">
          <mxGeometry x="-1605" y="120" width="60" height="60" as="geometry" />
        </mxCell>
        <mxCell id="MbAl7yiFMgFEbEgRKCan-47" value="Process the Message, determine the recipent" style="rounded=1;whiteSpace=wrap;html=1;" vertex="1" parent="1">
          <mxGeometry x="-896" y="105" width="142" height="55" as="geometry" />
        </mxCell>
        <mxCell id="MbAl7yiFMgFEbEgRKCan-53" style="edgeStyle=orthogonalEdgeStyle;rounded=0;orthogonalLoop=1;jettySize=auto;html=1;exitX=0.5;exitY=0;exitDx=0;exitDy=0;entryX=0.5;entryY=0;entryDx=0;entryDy=0;" edge="1" parent="1" source="MbAl7yiFMgFEbEgRKCan-49" target="MbAl7yiFMgFEbEgRKCan-45">
          <mxGeometry relative="1" as="geometry" />
        </mxCell>
        <mxCell id="MbAl7yiFMgFEbEgRKCan-68" value="&lt;font style=&quot;font-size: 14px;&quot;&gt;NO&lt;/font&gt;" style="edgeLabel;html=1;align=center;verticalAlign=middle;resizable=0;points=[];" vertex="1" connectable="0" parent="MbAl7yiFMgFEbEgRKCan-53">
          <mxGeometry x="-0.3063" relative="1" as="geometry">
            <mxPoint x="91" as="offset" />
          </mxGeometry>
        </mxCell>
        <mxCell id="MbAl7yiFMgFEbEgRKCan-73" style="edgeStyle=orthogonalEdgeStyle;rounded=0;orthogonalLoop=1;jettySize=auto;html=1;exitX=0.5;exitY=1;exitDx=0;exitDy=0;entryX=1;entryY=0.5;entryDx=0;entryDy=0;" edge="1" parent="1" source="MbAl7yiFMgFEbEgRKCan-49" target="MbAl7yiFMgFEbEgRKCan-71">
          <mxGeometry relative="1" as="geometry" />
        </mxCell>
        <mxCell id="MbAl7yiFMgFEbEgRKCan-49" value="&lt;div style=&quot;font-size: 15px;&quot; align=&quot;center&quot;&gt;&lt;font style=&quot;font-size: 15px;&quot;&gt;Is &lt;b&gt;Client&lt;/b&gt; already a User?&lt;/font&gt;&lt;/div&gt;" style="rhombus;whiteSpace=wrap;html=1;" vertex="1" parent="1">
          <mxGeometry x="-1384" y="90" width="118" height="120" as="geometry" />
        </mxCell>
        <mxCell id="MbAl7yiFMgFEbEgRKCan-51" value="Database Check" style="rounded=1;whiteSpace=wrap;html=1;" vertex="1" parent="1">
          <mxGeometry x="-1150" y="90" width="120" height="60" as="geometry" />
        </mxCell>
        <mxCell id="MbAl7yiFMgFEbEgRKCan-52" value="" style="endArrow=none;dashed=1;html=1;rounded=0;entryX=1;entryY=0;entryDx=0;entryDy=0;exitX=0;exitY=0.5;exitDx=0;exitDy=0;" edge="1" parent="1" source="MbAl7yiFMgFEbEgRKCan-51" target="MbAl7yiFMgFEbEgRKCan-49">
          <mxGeometry width="50" height="50" relative="1" as="geometry">
            <mxPoint x="-1260" y="580" as="sourcePoint" />
            <mxPoint x="-1210" y="530" as="targetPoint" />
          </mxGeometry>
        </mxCell>
        <mxCell id="MbAl7yiFMgFEbEgRKCan-67" value="&lt;font style=&quot;font-size: 14px;&quot;&gt;Checks&lt;/font&gt;" style="edgeLabel;html=1;align=center;verticalAlign=middle;resizable=0;points=[];" vertex="1" connectable="0" parent="MbAl7yiFMgFEbEgRKCan-52">
          <mxGeometry x="0.1462" y="-1" relative="1" as="geometry">
            <mxPoint as="offset" />
          </mxGeometry>
        </mxCell>
        <mxCell id="MbAl7yiFMgFEbEgRKCan-80" style="edgeStyle=orthogonalEdgeStyle;rounded=0;orthogonalLoop=1;jettySize=auto;html=1;exitX=0.5;exitY=1;exitDx=0;exitDy=0;entryX=0.5;entryY=0;entryDx=0;entryDy=0;" edge="1" parent="1" source="MbAl7yiFMgFEbEgRKCan-58" target="MbAl7yiFMgFEbEgRKCan-78">
          <mxGeometry relative="1" as="geometry" />
        </mxCell>
        <mxCell id="MbAl7yiFMgFEbEgRKCan-58" value="Attempts Login" style="rounded=1;whiteSpace=wrap;html=1;" vertex="1" parent="1">
          <mxGeometry x="-1690" y="230" width="100" height="60" as="geometry" />
        </mxCell>
        <mxCell id="MbAl7yiFMgFEbEgRKCan-84" style="edgeStyle=orthogonalEdgeStyle;rounded=0;orthogonalLoop=1;jettySize=auto;html=1;exitX=0.5;exitY=1;exitDx=0;exitDy=0;" edge="1" parent="1" source="MbAl7yiFMgFEbEgRKCan-71" target="MbAl7yiFMgFEbEgRKCan-83">
          <mxGeometry relative="1" as="geometry" />
        </mxCell>
        <mxCell id="MbAl7yiFMgFEbEgRKCan-71" value="User is Granted Access" style="rounded=1;whiteSpace=wrap;html=1;" vertex="1" parent="1">
          <mxGeometry x="-1625" y="400" width="100" height="60" as="geometry" />
        </mxCell>
        <mxCell id="MbAl7yiFMgFEbEgRKCan-81" style="edgeStyle=orthogonalEdgeStyle;rounded=0;orthogonalLoop=1;jettySize=auto;html=1;exitX=0.5;exitY=1;exitDx=0;exitDy=0;entryX=0.5;entryY=0;entryDx=0;entryDy=0;" edge="1" parent="1" source="MbAl7yiFMgFEbEgRKCan-76" target="MbAl7yiFMgFEbEgRKCan-78">
          <mxGeometry relative="1" as="geometry" />
        </mxCell>
        <mxCell id="MbAl7yiFMgFEbEgRKCan-76" value="Create Account" style="rounded=1;whiteSpace=wrap;html=1;" vertex="1" parent="1">
          <mxGeometry x="-1560" y="230" width="100" height="60" as="geometry" />
        </mxCell>
        <mxCell id="MbAl7yiFMgFEbEgRKCan-78" value="" style="rounded=0;whiteSpace=wrap;html=1;" vertex="1" parent="1">
          <mxGeometry x="-1635" y="335" width="120" height="15" as="geometry" />
        </mxCell>
        <mxCell id="MbAl7yiFMgFEbEgRKCan-82" style="edgeStyle=orthogonalEdgeStyle;rounded=0;orthogonalLoop=1;jettySize=auto;html=1;exitX=0.5;exitY=1;exitDx=0;exitDy=0;entryX=0;entryY=0.5;entryDx=0;entryDy=0;" edge="1" parent="1" source="MbAl7yiFMgFEbEgRKCan-79" target="MbAl7yiFMgFEbEgRKCan-49">
          <mxGeometry relative="1" as="geometry">
            <Array as="points">
              <mxPoint x="-1575" y="385" />
              <mxPoint x="-1410" y="385" />
              <mxPoint x="-1410" y="150" />
            </Array>
          </mxGeometry>
        </mxCell>
        <mxCell id="MbAl7yiFMgFEbEgRKCan-79" value="" style="rounded=0;whiteSpace=wrap;html=1;" vertex="1" parent="1">
          <mxGeometry x="-1635" y="350" width="120" height="15" as="geometry" />
        </mxCell>
        <mxCell id="MbAl7yiFMgFEbEgRKCan-86" style="edgeStyle=orthogonalEdgeStyle;rounded=0;orthogonalLoop=1;jettySize=auto;html=1;" edge="1" parent="1" source="MbAl7yiFMgFEbEgRKCan-83" target="MbAl7yiFMgFEbEgRKCan-85">
          <mxGeometry relative="1" as="geometry" />
        </mxCell>
        <mxCell id="MbAl7yiFMgFEbEgRKCan-83" value="User Hosts" style="rounded=1;whiteSpace=wrap;html=1;" vertex="1" parent="1">
          <mxGeometry x="-1635" y="560" width="120" height="60" as="geometry" />
        </mxCell>
        <mxCell id="MbAl7yiFMgFEbEgRKCan-85" value="Server starts listening and opens a port" style="rounded=1;whiteSpace=wrap;html=1;" vertex="1" parent="1">
          <mxGeometry x="-896" y="560" width="120" height="60" as="geometry" />
        </mxCell>
        <mxCell id="MbAl7yiFMgFEbEgRKCan-88" value="&lt;font style=&quot;font-size: 14px;&quot;&gt;Users account is logged into the database&lt;/font&gt;" style="rounded=1;whiteSpace=wrap;html=1;" vertex="1" parent="1">
          <mxGeometry x="-1150" y="230" width="120" height="60" as="geometry" />
        </mxCell>
        <mxCell id="MbAl7yiFMgFEbEgRKCan-90" value="" style="endArrow=none;dashed=1;html=1;rounded=0;" edge="1" parent="1" source="MbAl7yiFMgFEbEgRKCan-88" target="MbAl7yiFMgFEbEgRKCan-76">
          <mxGeometry width="50" height="50" relative="1" as="geometry">
            <mxPoint x="-1239" y="259.47" as="sourcePoint" />
            <mxPoint x="-1384" y="259.47" as="targetPoint" />
          </mxGeometry>
        </mxCell>
        <mxCell id="MbAl7yiFMgFEbEgRKCan-91" value="Logged" style="edgeLabel;html=1;align=center;verticalAlign=middle;resizable=0;points=[];" vertex="1" connectable="0" parent="MbAl7yiFMgFEbEgRKCan-90">
          <mxGeometry x="0.1462" y="-1" relative="1" as="geometry">
            <mxPoint x="78" y="-5" as="offset" />
          </mxGeometry>
        </mxCell>
      </root>
    </mxGraphModel>
  </diagram>
</mxfile>
